/* XPM */
static char *_552142430261[] = {
/* columns rows colors chars-per-pixel */
"64 64 117 2 ",
"   c #677D4F",
".  c #6E7F5E",
"X  c #6A6C6F",
"o  c #6B7665",
"O  c #6B706D",
"+  c #6B6E70",
"@  c #6E7173",
"#  c #717475",
"$  c #777E74",
"%  c #747779",
"&  c #76797B",
"*  c #797C7D",
"=  c #5F872D",
"-  c #5F882D",
";  c #60872E",
":  c #61892F",
">  c #648B33",
",  c #678E38",
"<  c #698F39",
"1  c #679033",
"2  c #6A9730",
"3  c #6D9C30",
"4  c #6C913D",
"5  c #709A39",
"6  c #75A732",
"7  c #79AC35",
"8  c #77A33C",
"9  c #7BAB3B",
"0  c #7DB431",
"q  c #688842",
"w  c #6E9341",
"e  c #719545",
"r  c #769E43",
"t  c #749748",
"y  c #76994B",
"u  c #799B4E",
"i  c #72875B",
"p  c #768E5B",
"a  c #7D9E53",
"s  c #7A925F",
"d  c #77A142",
"f  c #7FA057",
"g  c #7C8B6D",
"h  c #7D9464",
"j  c #7E9269",
"k  c #7A8376",
"l  c #7F8B75",
"z  c #7A8079",
"x  c #84BE32",
"c  c #86C232",
"v  c #88C336",
"b  c #8CC53B",
"n  c #80A74E",
"m  c #82B243",
"M  c #87AE53",
"N  c #83A25B",
"B  c #8DB951",
"V  c #8DB45A",
"C  c #92BF54",
"Z  c #828F75",
"A  c #818C78",
"S  c #839175",
"D  c #89947E",
"F  c #8D9C7E",
"G  c #87A561",
"H  c #89A764",
"J  c #8BA866",
"K  c #8EAA6A",
"L  c #91AD6E",
"P  c #90A676",
"I  c #93AE71",
"U  c #91A47D",
"Y  c #95AB7A",
"T  c #98AE7D",
"R  c #96B174",
"E  c #98B277",
"W  c #9BB47B",
"Q  c #8FC641",
"!  c #90C743",
"~  c #92C845",
"^  c #95CA4B",
"/  c #98CC4F",
"(  c #98C757",
")  c #9ACC53",
"_  c #98C25E",
"`  c #9ECE5A",
"'  c #A0CF5E",
"]  c #9FC36D",
"[  c #A3D164",
"{  c #A7D269",
"}  c #A9D36D",
"|  c #AACF77",
" . c #ADD674",
".. c #AFD47C",
"X. c #B0D77A",
"o. c #B2D87C",
"O. c #7C7F81",
"+. c #7F8183",
"@. c #848789",
"#. c #8B8D8F",
"$. c #909E80",
"%. c #93A482",
"&. c #97A983",
"*. c #98A885",
"=. c #9FB681",
"-. c #9FB881",
";. c #A0B782",
":. c #A2BA84",
">. c #A0B28D",
",. c #A5BC89",
"<. c #ABBC96",
"1. c #ABC18F",
"2. c #B3D681",
"3. c #B5DB82",
"4. c #B8DC85",
"5. c #AEC393",
"6. c None",
/* pixels */
"6.6.6.6.6.6.6.6.6.6.6.6.6.6.6.6.6.6.6.6.6.6.6.6.6.6.6.6.6.6.6.6.6.6.6.6.6.6.6.6.6.6.6.6.6.6.6.6.6.6.6.6.6.6.6.6.6.6.6.6.6.6.6.6.",
"6.6.6.6.6.6.6.6.6.6.6.6.6.6.6.6.6.6.6.6.6.6.6.6.6.6.6.6.6.6.6.6.6.6.6.6.6.6.6.6.6.6.6.6.6.6.6.6.6.6.6.6.6.6.6.6.6.6.6.6.6.6.6.6.",
"6.6.6.6.6.6.6.6.6.6.6.6.6.6.6.6.6.6.6.6.6.6.6.6.6.6.6.6.6.6.6.6.6.6.6.6.6.6.6.6.6.6.6.6.6.6.6.6.6.6.6.6.6.6.6.6.6.6.6.6.6.6.6.6.",
"6.6.6.6.6.6.6.6.6.6.6.6.6.6.6.6.6.6.6.6.6.6.6.6.6.6.6.6.6.c c 6.6.6.6.6.6.6.6.6.6.6.6.6.6.6.6.6.6.6.6.6.6.6.6.6.6.6.6.6.6.6.6.6.",
"6.6.6.6.6.6.6.6.6.6.6.6.6.6.6.6.6.6.6.6.6.6.6.6.6.6.6.6.6.6.c c 6.6.6.6.6.6.6.6.6.6.6.6.6.6.6.6.6.6.6.6.6.6.6.6.6.6.6.6.6.6.6.6.",
"6.6.6.6.6.6.6.6.6.6.6.6.6.6.6.6.6.6.6.6.6.6.6.6.6.6.6.6.6.6.c c c 6.6.6.6.6.6.6.6.6.6.6.6.6.6.6.6.6.6.6.6.6.6.6.6.6.6.6.6.6.6.6.",
"6.6.6.6.6.6.6.6.6.6.6.6.6.6.6.6.6.6.6.6.6.6.6.6.6.6.6.6.6.6.c c c c 6.6.6.6.6.6.6.6.6.6.6.6.6.6.6.6.6.6.6.6.6.6.6.6.6.6.6.6.6.6.",
"6.6.6.6.6.6.6.6.6.6.6.6.6.6.6.6.6.6.6.6.6.6.6.6.6.6.6.6.6.6.c c c c c c 6.6.6.6.6.6.6.6.6.6.6.6.6.6.6.6.6.6.6.6.6.6.6.6.6.6.6.6.",
"6.6.6.6.6.6.6.6.6.6.6.6.6.6.6.6.6.6.6.6.6.6.6.6.6.6.6.6.6.6.c c c c c c c 6.6.6.6.6.6.6.6.6.6.6.6.6.6.6.6.6.6.6.6.6.6.6.6.6.6.6.",
"6.6.6.6.6.6.6.6.6.6.6.6.6.6.6.6.6.6.6.6.6.6.6.6.6.6.6.6.6.6.6.c c c c c c c 6.6.6.6.6.6.6.6.6.6.6.6.6.6.6.6.6.6.6.6.6.6.6.6.6.6.",
"6.6.6.6.6.6.6.6.6.6.6.6.6.6.6.6.6.6.6.6.6.6.6.6.6.6.6.6.6.6.6.c c c c c c c 6.6.6.6.6.6.6.6.6.6.6.6.6.6.6.6.6.6.6.6.6.6.6.6.6.6.",
"6.6.6.6.6.6.6.6.6.6.6.6.6.6.6.6.6.6.6.6.6.6.6.6.6.6.6.6.6.6.c c c c c c c c c 6.6.6.6.6.6.6.6.6.6.6.6.6.6.6.6.6.6.6.6.6.6.6.6.6.",
"6.6.6.6.6.6.6.6.6.6.6.6.6.6.6.6.6.6.6.6.6.6.6.6.6.6.6.6.6.6.c c c c c c c c c c 6.6.6.6.6.6.6.6.6.6.6.6.6.6.6.6.6.6.6.6.6.6.6.6.",
"6.6.6.6.6.6.6.6.6.6.6.6.6.6.6.6.6.6.6.6.6.6.6.6.6.6.6.6.6.6.c c c c c c c c c c c 6.6.6.6.6.6.6.6.6.6.6.6.6.6.6.6.6.6.6.6.6.6.6.",
"6.6.6.6.6.6.6.6.6.6.6.6.6.6.6.6.6.6.6.6.6.6.6.6.6.6.6.6.6.6.c c c c c c c c c c c 6.6.6.6.6.6.6.6.6.6.6.6.6.6.6.6.6.6.6.6.6.6.6.",
"6.6.6.6.6.6.6.6.6.6.6.6.6.6.6.6.6.6.6.6.6.6.6.6.6.6.6.6.6.c c c c c c c c c c c c c 6.6.6.6.6.6.6.6.6.6.6.6.6.6.6.6.6.6.6.6.6.6.",
"6.6.6.6.6.6.6.6.6.6.6.6.6.6.6.6.6.6.6.6.6.6.6.6.6.6.6.6.6.c c c c c c c c c c c c c 6.6.6.6.6.6.6.6.6.6.6.6.6.6.6.6.6.6.6.6.6.6.",
"6.6.6.6.6.6.6.6.6.6.6.6.6.6.6.6.6.6.6.6.6.6.6.6.6.6.6.6.7 v c c c c c c c c c c c c c 6.6.6.6.6.6.6.6.6.6.6.6.6.6.6.6.6.6.6.6.6.",
"6.6.6.6.6.6.6.6.6.6.6.6.6.6.6.6.6.6.6.6.6.6.6.6.6.6.6.; 9 b b v c c c c c c c c c c c 6.6.6.6.6.6.6.6.6.6.6.6.6.6.6.6.6.6.6.6.6.",
"6.6.6.6.6.6.6.6.6.6.6.6.6.6.6.6.6.6.6.6.6.6.6.6.6.6.> : 9 ! b b b v c c c c c c c c c c 6.6.6.6.6.6.6.6.6.6.6.6.6.6.6.6.6.6.6.6.",
"6.6.6.6.6.6.6.6.6.6.6.6.6.6.6.6.6.6.6.6.6.6.6.6.6.6.: ; 9 ^ ! ! b b b c c c c c c c c c 6.6.6.6.6.6.6.6.6.6.6.6.6.6.6.6.6.6.6.6.",
"6.6.6.6.6.6.6.6.6.6.6.6.6.6.6.6.6.6.6.6.6.6.6.6.6.: : ; 8 / ^ ~ ! Q b b v c c c c c c c 6.6.6.6.6.6.6.6.6.6.6.6.6.6.6.6.6.6.6.6.",
"6.6.6.6.6.6.6.6.6.6.6.6.6.6.6.6.6.6.6.6.6.6.6.6.: : ; ; 5 ) / / ^ ! Q Q b b v c c c c c 6.6.6.6.6.6.6.6.6.6.6.6.6.6.6.6.6.6.6.6.",
"6.6.6.6.6.6.6.6.6.6.6.6.6.6.6.6.6.6.6.6.6.6.6.: : : : ; 1 ( ` ) / / ^ ! ! Q b b v c c c c 6.6.6.6.6.6.6.6.6.6.6.6.6.6.6.6.6.6.6.",
"6.6.6.6.6.6.6.6.6.6.6.6.6.6.6.6.6.6.6.6.6.6.: : : : : : : B [ ' ( ) ) / ~ ! ! Q b b c c c 6.6.6.6.6.6.6.6.6.6.6.6.6.6.6.6.6.6.6.",
"6.6.6.6.6.6.6.6.6.6.6.6.6.6.6.6.6.6.6.6.6.: : : : : : : : d [ [ [ ` ) ) / ^ ^ Q ! b b b v 6.6.6.6.6.6.6.6.6.6.6.6.6.6.6.6.6.6.6.",
"6.6.6.6.6.6.6.6.6.6.6.6.6.6.6.6.6.6.6.6.: : : : : : : : : : _ { [ [ ` ` ) ) / ^ ~ ! ! b b 6.6.6.6.6.6.6.6.6.6.6.6.6.6.6.6.6.6.6.",
"6.6.6.6.6.6.6.6.6.6.6.6.6.6.6.6.6.6.6.  : : : : : : : : : : r } } { { [ [ ` ( / / ^ ~ Q Q 6.6.6.6.6.6.6.6.6.6.6.6.6.6.6.6.6.6.6.",
"6.6.6.6.6.6.6.6.6.6.6.6.6.6.6.6.6.+ X q , > > ; : : : : : : : M  . .} { [ [ ` ` ) ) ^ ^ 6.6.6.6.6.6.6.6.6.6.6.6.6.6.6.6.6.6.6.6.",
"6.6.6.6.6.6.6.6.6.6.6.6.6.6.6.6.+ + o < 1 , > > > : : : : : : : V  . .} { { [ ' ' ` ) ) 6.6.6.6.6.6.6.6.6.6.6.6.6.6.6.6.6.6.6.6.",
"6.6.6.6.6.6.6.6.6.6.6.6.6.6.6.+ + + . e w 4 , , > > : ; : : : : > V o.X. .} { { [ ' ` ` 6.6.6.6.6.6.6.6.6.6.6.6.6.6.6.6.6.6.6.6.",
"6.6.6.6.6.6.6.6.6.6.6.6.6.6.6.+ + + i y t e 4 4 , , > > : : : : : : M o.o. . .} { [ [ 6.6.6.6.6.6.6.6.6.6.6.6.6.6.6.6.6.6.6.6.6.",
"6.6.6.6.6.6.6.6.6.6.6.6.6.6.+ + + X p u y t e w 4 < , , > > : : : : : f  .3... . .{ { 6.6.6.6.6.6.c 6.6.6.6.6.6.6.6.6.6.6.6.6.6.",
"6.6.6.6.6.6.6.6.6.6.6.6.6.+ + + + X h n a u y t t e 4 , , > > : : : : - d  .3.o.X. .6.6.6.6.6.6.c c 6.6.6.6.6.6.6.6.6.6.6.6.6.6.",
"6.6.6.6.6.6.6.6.6.6.6.6.+ + + + + + h N N a a u y t e 4 4 , , , > : : : : 4 ] 4.3.o.6.6.6.6.6.6.c c c 6.6.6.6.6.6.6.6.6.6.6.6.6.",
"6.6.6.6.6.6.6.6.6.6.6.6.+ + + + + + j H N N a N u u t t e w 4 , , > > : : : > V 2.6.6.6.6.6.6.c c c c c 6.6.6.6.6.6.6.6.6.6.6.6.",
"6.6.6.6.6.6.6.6.6.6.6.+ + + + + + + g J J H N N N a u y t t w 4 4 4 , , : : : : 6.6.6.6.6.6.6.c c c c c 6.6.6.6.6.6.6.6.6.6.6.6.",
"6.6.6.6.6.6.6.6.6.6.6.+ + + + + + + $ I K K H N N N N a a y t t e 4 , , , > : 6.6.6.6.6.6.6.b c c c c c c 6.6.6.6.6.6.6.6.6.6.6.",
"6.6.6.6.6.6.6.6.6.6.+ + + + O X O X X P R L L J J N N N a a u y t e 4 4 4 , 6.6.6.6.6.6.6./ b c c c c c c 6.6.6.6.6.6.6.6.6.6.6.",
"6.6.6.6.6.6.6.6.6.6.@ + + + + X + X X S W I L L K J H N N N a u u t t e w 6.6.6.6.6.6.6.C ) b c c c c c c 6.6.6.6.6.6.6.6.6.6.6.",
"6.6.6.6.6.6.6.6.6.6.+ + + + X @ + + + # T W W R L L K J H N N N a u y t 6.6.6.6.6.6.6.6.1 m b c c c c c c 6.6.6.6.6.6.6.6.6.6.6.",
"6.6.6.6.6.6.6.6.6.6.+ + + + X @ + + + + A ;.W W E R I L J J H N N N a 6.6.6.6.6.6.6.6.: : : 6 c c c c c c 6.6.6.6.6.6.6.6.6.6.6.",
"6.6.6.6.6.6.6.6.6.6.+ + + + + X + + + + X F ,.;.W W E R L K K J H N 6.6.6.6.6.6.6.6.: : : : : 3 c c c c c c 6.6.6.6.6.6.6.6.6.6.",
"6.6.6.6.6.6.6.6.6.6.+ + + + @ X + + + + + @ U ,.,.;.W W E R L K J 6.6.6.6.6.6.6.6.: : : : : : : 3 x c c c c 6.6.6.6.6.6.6.6.6.6.",
"6.6.6.6.6.6.6.6.6.6.+ + + + + + + + + + + + @ D >.,.,.W W W R I L 6.6.6.6.6.6.6.> > : : : : : : = 3 x c c c 6.6.6.6.6.6.6.6.6.6.",
"6.6.6.6.6.6.6.6.6.6.+ + + + + + @ + + X + + X X $ %.,.,.:.-.W W 6.6.6.6.6.6.6.e 4 , > : : : : : > = 3 x c c 6.6.6.6.6.6.6.6.6.6.",
"6.6.6.6.6.6.6.6.6.6.+ + + + + + X X + + + + + + + + $ D &.=.-.6.6.6.6.6.6.6.N u t e , , > : : : : : : 6 c c 6.6.6.6.6.6.6.6.6.6.",
"6.6.6.6.6.6.6.6.6.6.+ + + + O X X @ + + + + + + + + + X + # k 6.6.6.6.6.6.6.N N a u t w , , : : : : : : 0 6.6.6.6.6.6.6.6.6.6.6.",
"6.6.6.6.6.6.6.6.6.6.@ + + + + + + + + + + + + + + + + + + + 6.6.6.6.6.6.6.E K J N N a y t 4 4 , : - : - 2 6.6.6.6.6.6.6.6.6.6.6.",
"6.6.6.6.6.6.6.6.6.6.@ @ @ + + + + + + + + + + + + + + + + + 6.6.6.6.6.6.@ l P R L J N N a y w 4 4 > > : : 6.6.6.6.6.6.6.6.6.6.6.",
"6.6.6.6.6.6.6.6.6.6.6.# # @ + + + + + + + + + + + + + + + + 6.6.6.6.6.6.@ + @ S E R K H N f u y e 4 , > > 6.6.6.6.6.6.6.6.6.6.6.",
"6.6.6.6.6.6.6.6.6.6.6.% % # # @ + + + + + + + + + + + + @ + 6.6.6.6.6.+ + + + + $ Y W L K H N f u y w 4 6.6.6.6.6.6.6.6.6.6.6.6.",
"6.6.6.6.6.6.6.6.6.6.6.6.& & % # + + + + + + + + + + + + + + 6.6.6.6.6.+ + + + + + @ U W E L K H N a u t 6.6.6.6.6.6.6.6.6.6.6.6.",
"6.6.6.6.6.6.6.6.6.6.6.6.6.& & % % # % + + + + + + + + + + + 6.6.6.6.6.+ + + + + + + @ %.:.W R L K N N 6.6.6.6.6.6.6.6.6.6.6.6.6.",
"6.6.6.6.6.6.6.6.6.6.6.6.6.6.O.& & % % @ @ @ + + + + + + + + 6.6.6.6.6.+ + + @ X X X @ @ *.,.-.W R L 6.6.6.6.6.6.6.6.6.6.6.6.6.6.",
"6.6.6.6.6.6.6.6.6.6.6.6.6.6.6.O.O.& % % % # @ + + + + + + + 6.6.6.6.6.+ O X X X @ @ O X # >.1.,.-.6.6.6.6.6.6.6.6.6.6.6.6.6.6.6.",
"6.6.6.6.6.6.6.6.6.6.6.6.6.6.6.6.O.O.O.& % % # # @ + + + + + 6.6.6.6.6.# @ + + + + + + + X z <.5.6.6.6.6.6.6.6.6.6.6.6.6.6.6.6.6.",
"6.6.6.6.6.6.6.6.6.6.6.6.6.6.6.6.6.6.O.O.O.& & % % # + + + + + 6.6.6.6.6.& # @ + + + + + + X 6.6.6.6.6.6.6.6.6.6.6.6.6.6.6.6.6.6.",
"6.6.6.6.6.6.6.6.6.6.6.6.6.6.6.6.6.6.6.6.O.O.& & % % # @ @ + + 6.6.6.6.6.@.+.& # @ X + + + 6.6.6.6.6.6.6.6.6.6.6.6.6.6.6.6.6.6.6.",
"6.6.6.6.6.6.6.6.6.6.6.6.6.6.6.6.6.6.6.6.6.6.O.* & & % % # @ @ 6.6.6.6.6.6.#.@.O.% @ 6.6.6.6.6.6.6.6.6.6.6.6.6.6.6.6.6.6.6.6.6.6.",
"6.6.6.6.6.6.6.6.6.6.6.6.6.6.6.6.6.6.6.6.6.6.6.6.6.O.& & % # # @ 6.6.6.6.6.6.6.6.6.6.6.6.6.6.6.6.6.6.6.6.6.6.6.6.6.6.6.6.6.6.6.6.",
"6.6.6.6.6.6.6.6.6.6.6.6.6.6.6.6.6.6.6.6.6.6.6.6.6.6.6.6.6.6.6.6.6.6.6.6.6.6.6.6.6.6.6.6.6.6.6.6.6.6.6.6.6.6.6.6.6.6.6.6.6.6.6.6.",
"6.6.6.6.6.6.6.6.6.6.6.6.6.6.6.6.6.6.6.6.6.6.6.6.6.6.6.6.6.6.6.6.6.6.6.6.6.6.6.6.6.6.6.6.6.6.6.6.6.6.6.6.6.6.6.6.6.6.6.6.6.6.6.6.",
"6.6.6.6.6.6.6.6.6.6.6.6.6.6.6.6.6.6.6.6.6.6.6.6.6.6.6.6.6.6.6.6.6.6.6.6.6.6.6.6.6.6.6.6.6.6.6.6.6.6.6.6.6.6.6.6.6.6.6.6.6.6.6.6."
};
