/* XPM */
static char *_552142434772[] = {
/* columns rows colors chars-per-pixel */
"32 32 195 2 ",
"   c #6B6F6F",
".  c #6C706F",
"X  c #6C716F",
"o  c #6A6D70",
"O  c #6B6D70",
"+  c #6B6E70",
"@  c #6B6D72",
"#  c #6C6F71",
"$  c #6C7071",
"%  c #6E7371",
"&  c #6F7371",
"*  c #6D7072",
"=  c #6E7173",
"-  c #6F7173",
";  c #6E7272",
":  c #6F7274",
">  c #707375",
",  c #717476",
"<  c #727476",
"1  c #727577",
"2  c #747B72",
"3  c #737875",
"4  c #767C75",
"5  c #777E75",
"6  c #787F76",
"7  c #737678",
"8  c #747778",
"9  c #75787A",
"0  c #76797B",
"q  c #777A7C",
"w  c #797B7D",
"e  c #7A7C7E",
"r  c #60882E",
"t  c #60882F",
"y  c #61892F",
"u  c #628A2F",
"i  c #65902F",
"p  c #66912F",
"a  c #628930",
"s  c #628931",
"d  c #628A30",
"f  c #628A31",
"g  c #638A31",
"h  c #638B31",
"j  c #638B32",
"k  c #648B33",
"l  c #638C30",
"z  c #648C32",
"x  c #648C33",
"c  c #658C34",
"v  c #658C35",
"b  c #668C35",
"n  c #668D35",
"m  c #678F35",
"M  c #678D37",
"N  c #678E38",
"B  c #688E39",
"V  c #698F3A",
"C  c #699530",
"Z  c #6A9730",
"A  c #6E9936",
"S  c #6A903B",
"D  c #6D943B",
"F  c #6E963B",
"G  c #6B903C",
"H  c #6B913C",
"J  c #6C913E",
"K  c #6D923E",
"L  c #6D923F",
"P  c #71993E",
"I  c #749D3E",
"U  c #7DB431",
"Y  c #7DB531",
"T  c #6E9340",
"R  c #6F9440",
"E  c #709443",
"W  c #719544",
"Q  c #729645",
"!  c #729646",
"~  c #739646",
"^  c #749748",
"/  c #759849",
"(  c #76994B",
")  c #77994C",
"_  c #789B4D",
"`  c #799A4E",
"'  c #6A8054",
"]  c #718B53",
"[  c #7A9C50",
"{  c #7B9C51",
"}  c #7C9D53",
"|  c #7E9F55",
" . c #7E9F56",
".. c #799459",
"X. c #7FA057",
"o. c #7B8772",
"O. c #80B931",
"+. c #81B935",
"@. c #82BA34",
"#. c #82B63B",
"$. c #86C232",
"%. c #86C332",
"&. c #87C332",
"*. c #87C333",
"=. c #87C234",
"-. c #87C334",
";. c #88C335",
":. c #89C337",
">. c #89C438",
",. c #8AC438",
"<. c #8AC439",
"1. c #8BC53A",
"2. c #8CC53D",
"3. c #8DC53E",
"4. c #8EC63F",
"5. c #81AE45",
"6. c #85B643",
"7. c #80A058",
"8. c #81A158",
"9. c #82A259",
"0. c #84A35D",
"q. c #85A35E",
"w. c #85A45E",
"e. c #86A45F",
"r. c #90B65E",
"t. c #93BD5A",
"y. c #809963",
"u. c #83966D",
"i. c #839273",
"p. c #8A9D75",
"a. c #85917B",
"s. c #8A9A7A",
"d. c #87A560",
"f. c #88A662",
"g. c #89A763",
"h. c #89A764",
"j. c #8AA865",
"k. c #8CAA66",
"l. c #8DA76F",
"z. c #8DAA6A",
"x. c #8EAB6B",
"c. c #8FAB6B",
"v. c #8FAC6C",
"b. c #91AD6E",
"n. c #93AE71",
"m. c #94AF72",
"M. c #92A57B",
"N. c #95B074",
"B. c #96B075",
"V. c #98B277",
"C. c #99B378",
"Z. c #99B379",
"A. c #9BB57A",
"S. c #9EB77F",
"D. c #90C742",
"F. c #90C743",
"G. c #91C845",
"H. c #93C947",
"J. c #92C44D",
"K. c #94C949",
"L. c #94C94A",
"P. c #95CA4C",
"I. c #97CB4F",
"U. c #98CB50",
"Y. c #99CB52",
"T. c #9BCD54",
"R. c #9BCD56",
"E. c #9CCD58",
"W. c #9DCE59",
"Q. c #A0CF5D",
"!. c #A0CF5E",
"~. c #A1D05F",
"^. c #9CC269",
"/. c #A0CE60",
"(. c #A0C969",
"). c #A1C86B",
"_. c #A4D164",
"`. c #A5D166",
"'. c #A7D369",
"]. c #A9D36C",
"[. c #AAD56F",
"{. c #ADD673",
"}. c #AFD776",
"|. c #B0D57D",
" X c #B2D87C",
".X c #7B7E80",
"XX c #838687",
"oX c #92A281",
"OX c #92A082",
"+X c #9AAE82",
"@X c #9FB684",
"#X c #9FB880",
"$X c #A2BA85",
"%X c #A0B18E",
"&X c None",
/* pixels */
"&X&X&X&X&X&X&X&X&X&X&X&X&X&X&X&X&X&X&X&X&X&X&X&X&X&X&X&X&X&X&X&X",
"&X&X&X&X&X&X&X&X&X&X&X&X&X&X&X&X&X&X&X&X&X&X&X&X&X&X&X&X&X&X&X&X",
"&X&X&X&X&X&X&X&X&X&X&X&X&X&X&X*.&X&X&X&X&X&X&X&X&X&X&X&X&X&X&X&X",
"&X&X&X&X&X&X&X&X&X&X&X&X&X&X&X*.*.*.&X&X&X&X&X&X&X&X&X&X&X&X&X&X",
"&X&X&X&X&X&X&X&X&X&X&X&X&X&X&X*.*.*.*.&X&X&X&X&X&X&X&X&X&X&X&X&X",
"&X&X&X&X&X&X&X&X&X&X&X&X&X&X&X*.*.*.*.&X&X&X&X&X&X&X&X&X&X&X&X&X",
"&X&X&X&X&X&X&X&X&X&X&X&X&X&X&X*.@.%.%.%.&X&X&X&X&X&X&X&X&X&X&X&X",
"&X&X&X&X&X&X&X&X&X&X&X&X&X&X&X*.%.%.%.%.*.&X&X&X&X&X&X&X&X&X&X&X",
"&X&X&X&X&X&X&X&X&X&X&X&X&X&X@.*.%.%.*.*.*.&X&X&X&X&X&X&X&X&X&X&X",
"&X&X&X&X&X&X&X&X&X&X&X&X&Xl #.1.*.%.%.*.*.*.&X&X&X&X&X&X&X&X&X&X",
"&X&X&X&X&X&X&X&X&X&X&X&X&Xy 6.H.3.:.*.*.*.*.&X&X&X&X&X&X&X&X&X&X",
"&X&X&X&X&X&X&X&X&X&X&X&Xr g 5.T.P.G.3.;.@.*.&X&X&X&X&X&X&X&X&X&X",
"&X&X&X&X&X&X&X&X&X&X&Xy y y I /.E.Y.L.F.3.:.&X&X&X&X&X&X&X&X&X&X",
"&X&X&X&X&X&X&X&X&X&Xg y y y g t.'./.E.Y.H.F.&X&X&X&X&X&X&X&X&X&X",
"&X&X&X&X&X&X&X&X@ ' n g y y r F ^.{._.Q.T.U.&X&X&X&X&X&X&X&X&X&X",
"&X&X&X&X&X&X&X&X  ] R S c g y r I ).}.]._.Q.&X&X&X&X&X&X&X&X&X&X",
"&X&X&X&X&X&X&X  = ..` W R V v g y F ^. X{.&X&X&X*.&X&X&X&X&X&X&X",
"&X&X&X&X&X&X@ @ @ X.9.} ) W T V l y n r.|.&X&X&X*.*.&X&X&X&X&X&X",
"&X&X&X&X&X&X    @ i.j.d.X.[ ) R G N g l &X&X&X;.*.@.&X&X&X&X&X&X",
"&X&X&X&X&X@ @   $ o.N.x.j.d.X.` / W G &X&X&XJ.1.*.*.&X&X&X&X&X&X",
"&X&X&X&X&X@       ; M.A.N.c.f.0. .` &X&X&X&XA Y *.*.*.&X&X&X&X&X",
"&X&X&X&X&X    @ @   5 +XS.V.n.c.f.&X&X&X&Xg g i U *.*.&X&X&X&X&X",
"&X&X&X&X&X@           5 OX@XS.V.&X&X&X&Xn g y r i U *.&X&X&X&X&X",
"&X&X&X&X&X@ o @ o @   o ; 6 a.&X&X&X&X8.) L n y r p O.&X&X&X&X&X",
"&X&X&X&X&X; @     @       o   &X&X&Xi.l.f.X./ G l l Z &X&X&X&X&X",
"&X&X&X&X&X&X= ; @ #   @ # o # &X&X&X  2 p.b.w.} ! S &X&X&X&X&X&X",
"&X&X&X&X&X&Xq 8 > #   @   #   &X&X@ @   % s.Z.c.w.[ &X&X&X&X&X&X",
"&X&X&X&X&X&X&Xw q 8 ; ; o O o &X&X      @ ; OX$XN.&X&X&X&X&X&X&X",
"&X&X&X&X&X&X&X&X&Xe 0 , > # @ &X&X&X, # @   3 %X&X&X&X&X&X&X&X&X",
"&X&X&X&X&X&X&X&X&X&X.Xw 8 , ; ; &X&XXXe ; @ &X&X&X&X&X&X&X&X&X&X",
"&X&X&X&X&X&X&X&X&X&X&X&X&X&X, &X&X&X&X&X&X&X&X&X&X&X&X&X&X&X&X&X",
"&X&X&X&X&X&X&X&X&X&X&X&X&X&X&X&X&X&X&X&X&X&X&X&X&X&X&X&X&X&X&X&X"
};
