/* XPM */
static char *_552142439238[] = {
/* columns rows colors chars-per-pixel */
"16 16 66 1 ",
"  c #6D7E5D",
". c #6A6D70",
"X c #6B6D70",
"o c #6B6D71",
"O c #6B6E70",
"+ c #6C6F71",
"@ c #6E7271",
"# c #6D7072",
"$ c #707472",
"% c #707375",
"& c #727576",
"* c #777F74",
"= c #747678",
"- c #75787A",
"; c #76787A",
": c #60882E",
"> c #618831",
", c #628A31",
"< c #638A31",
"1 c #648C31",
"2 c #678F35",
"3 c #678D37",
"4 c #688E37",
"5 c #698E3A",
"6 c #689037",
"7 c #6D9B30",
"8 c #6F9D33",
"9 c #6A903B",
"0 c #6D923E",
"q c #6E9240",
"w c #709443",
"e c #789A4D",
"r c #799B4F",
"t c #7A9C50",
"y c #748366",
"u c #7B896F",
"i c #768070",
"p c #82BC32",
"a c #85BD37",
"s c #86C232",
"d c #86C233",
"f c #87C333",
"g c #89C13A",
"h c #89C438",
"j c #82AC49",
"k c #89BA46",
"l c #80A057",
"z c #83A25B",
"x c #8FB65B",
"c c #93BC5C",
"v c #85917A",
"b c #8C9D79",
"n c #87A660",
"m c #85A065",
"M c #8CA967",
"N c #8CA869",
"B c #92A877",
"V c #91A57A",
"C c #97B276",
"Z c #8EC640",
"A c #90C843",
"S c #96CA4D",
"D c #9ECE5B",
"F c #A0CF5D",
"G c #A7D36A",
"H c None",
/* pixels */
"HHHHHHHHHHHHHHHH",
"HHHHHHHHHHHHHHHH",
"HHHHHHHHsHHHHHHH",
"HHHHHHHsssHHHHHH",
"HHHHHHHafssHHHHH",
"HHHHHH1kAhsHHHHH",
"HHHHH>:jFSZHHHHH",
"HHHH 5>6cGDHHHHH",
"HHHOytw29xHHsHHH",
"HHHX*Nze02HgsHHH",
"HHOO@bCNzHH8pHHH",
"HHOOO@vVHH0>8HHH",
"HHH#OOOHHumt9HHH",
"HHH-=#OHHoiBzHHH",
"HHHHH;%#H=#HHHHH",
"HHHHHHHHHHHHHHHH"
};
